<?xml version="1.0" encoding="utf-8"?>
<!-- Generator: Adobe Illustrator 14.0.0, SVG Export Plug-In . SVG Version: 6.00 Build 43363)  -->
<!DOCTYPE svg PUBLIC "-//W3C//DTD SVG 1.1//EN" "http://www.w3.org/Graphics/SVG/1.1/DTD/svg11.dtd">
<svg version="1.1" xmlns="http://www.w3.org/2000/svg" xmlns:xlink="http://www.w3.org/1999/xlink" x="0px" y="0px" width="472px"
	 height="543px" viewBox="0 0 472 543" enable-background="new 0 0 472 543" xml:space="preserve">
<g id="Layer_1">
	<path display="none" fill-rule="evenodd" clip-rule="evenodd" fill="#0069A6" stroke="#0069A6" stroke-width="10" d="
		M450.604,143.439l-216-124L19.217,144.5l0.613,249.062l5.308,3.047c0.528-0.063,1.093-0.047,1.691,0.069
		c11.811,2.285,22.369,11.627,31.901,18.474c1.581,1.136,3.144,2.295,4.713,3.447l172.387,98.963L451.217,392.5L450.604,143.439z"/>
	<polygon fill="#0069A6" stroke="#0069A6" stroke-width="10" points="462.179,403.324 237.042,533.308 11.903,403.324 
		11.903,143.357 237.042,13.374 462.179,143.357 	"/>
</g>
<g id="Layer_4">
	<path fill="#FFFFFF" d="M319.235,123.038c1.582-3.444,2.475-7.21,2.475-11.137C321.71,94.841,305.104,81,284.641,81
		c-7.607,0-14.712,1.932-20.58,5.215C253.365,70.765,233.401,60.4,210.503,60.4c-34.129,0-61.777,23.047-61.777,51.501
		c0,0.87,0.038,1.737,0.077,2.608c-21.621,6.339-37.144,23.529-37.144,43.742c0,25.589,24.904,46.352,55.6,46.352h142.092
		c27.299,0,49.423-18.443,49.423-41.201C358.774,143.479,341.783,126.836,319.235,123.038z"/>
	<path fill="#0069A6" d="M206.387,163.001c0,7.318-5.932,13.25-13.25,13.25s-13.25-5.932-13.25-13.25
		c0-4.903,2.666-9.182,6.625-11.473v-34.902c0-3.659,2.967-6.625,6.625-6.625s6.625,2.966,6.625,6.625v34.902
		C203.721,153.82,206.387,158.098,206.387,163.001z M213.012,145.477c4.122,4.671,6.625,10.805,6.625,17.525
		c0,14.636-11.863,26.5-26.5,26.5c-0.062,0-0.126,0-0.188-0.001c-14.555-0.101-26.387-12.083-26.312-26.637
		c0.034-6.667,2.53-12.749,6.624-17.387v-42.1c0-10.976,8.898-19.874,19.875-19.874s19.875,8.898,19.875,19.874V145.477z
		 M209.7,163.001c0-7.109-4.01-10.805-6.625-13.768v-45.857c0-5.479-4.458-9.937-9.938-9.937s-9.938,4.458-9.938,9.937v45.857
		c-2.636,2.987-6.589,6.646-6.625,13.68c-0.046,9.084,7.363,16.586,16.443,16.65h0.119C202.27,179.564,209.7,172.134,209.7,163.001z
		"/>
	<path fill="#0069A6" d="M303.283,165.638l-5.965-3.5l5.189-1.416c1.277-0.351,2.039-1.689,1.689-2.982l-0.625-2.359
		c-0.334-1.294-1.658-2.07-2.938-1.72l-12.129,3.303l-10.928-6.423l10.943-6.422l12.129,3.303c1.278,0.35,2.588-0.427,2.938-1.72
		l0.624-2.359c0.335-1.294-0.411-2.633-1.689-2.982l-5.189-1.416l5.966-3.5c1.141-0.67,1.537-2.161,0.883-3.334l-1.203-2.115
		c-0.654-1.172-2.131-1.567-3.271-0.897l-5.967,3.501l1.386-5.281c0.335-1.294-0.411-2.634-1.689-2.983l-2.313-0.624
		c-1.278-0.35-2.587,0.427-2.938,1.72l-3.241,12.328l-10.942,6.422v-12.86l8.873-9.024c0.928-0.943,0.928-2.496,0-3.439l-1.689-1.72
		c-0.929-0.943-2.451-0.943-3.379,0L274.018,121v-6.985c0-1.339-1.066-2.435-2.391-2.435h-2.389c-1.324,0-2.39,1.096-2.39,2.435
		v7.016l-3.789-3.865c-0.929-0.943-2.45-0.943-3.379,0l-1.75,1.72c-0.929,0.943-0.929,2.496,0,3.439l8.872,9.024v12.861
		l-10.941-6.423l-3.242-12.328c-0.334-1.293-1.658-2.069-2.938-1.72l-2.312,0.625c-1.279,0.35-2.04,1.688-1.689,2.982l1.385,5.281
		l-5.966-3.5c-1.142-0.671-2.603-0.274-3.272,0.896l-1.202,2.116c-0.654,1.172-0.274,2.647,0.883,3.333l5.966,3.5l-5.189,1.386
		c-1.279,0.35-2.039,1.688-1.689,2.982l0.624,2.359c0.335,1.293,1.659,2.069,2.937,1.72l12.131-3.303l10.941,6.422l-10.941,6.423
		l-12.131-3.303c-1.277-0.351-2.586,0.426-2.937,1.72l-0.624,2.359c-0.335,1.293,0.41,2.632,1.689,2.982l5.189,1.416l-5.966,3.5
		c-1.142,0.67-1.537,2.161-0.883,3.333l1.202,2.115c0.654,1.172,2.131,1.568,3.272,0.897l5.966-3.5l-1.385,5.281
		c-0.335,1.293,0.41,2.633,1.689,2.982l2.312,0.624c1.279,0.351,2.588-0.426,2.938-1.72l3.242-12.327l10.941-6.423v12.86
		l-8.872,9.025c-0.929,0.943-0.929,2.496,0,3.439l1.689,1.72c0.929,0.943,2.45,0.943,3.378,0l3.79-3.865v6.984
		c0,1.34,1.065,2.436,2.39,2.436h2.389c1.324,0,2.39-1.096,2.39-2.436v-7.016l3.79,3.866c0.928,0.943,2.449,0.943,3.379,0
		l1.689-1.72c0.928-0.943,0.928-2.496,0-3.439l-8.873-9.025v-12.86l10.941,6.423l3.242,12.327c0.335,1.294,1.659,2.07,2.938,1.72
		l2.312-0.624c1.279-0.35,2.04-1.689,1.689-2.983l-1.385-5.28l5.967,3.5c1.141,0.67,2.602,0.274,3.271-0.897l1.203-2.116
		C304.82,167.799,304.439,166.308,303.283,165.638L303.283,165.638z"/>
</g>
<g id="Layer_3">
	<text transform="matrix(1 0 0 1 130 260.5)" fill="#FFFFFF" font-family="'HelveticaNeue-Bold'" font-size="60">ecmwfr</text>
</g>
<g id="Layer_2">
	<path fill="#FFFFFF" d="M214.613,487.102c-7.88,0-15.662,1.897-22.514,5.356l43.73,25.104l37.39-21.71
		c-7.895-5.62-17.855-8.751-28.193-8.751H214.613z"/>
	<path fill="#FFFFFF" d="M225.578,308.088c-1.853,0-3.705,0.17-5.556,0.254l-28.172,18.353c-1.948,1.269-3.118,3.298-3.118,5.413
		v16.913c0,3.722,3.508,6.766,7.798,6.766h15.596c4.289,0,7.798-3.044,7.798-6.766v-6.766l15.598-13.531h20.177
		c6.043,0,11.014,4.313,11.014,9.558c0,2.537-1.169,4.989-3.216,6.766l-26.124,22.665c-1.17,1.014-2.631,1.776-4.288,2.282
		l-38.991,11.249c-3.216,0.929-5.36,3.552-5.36,6.427c0,5.583-2.535,10.91-7.019,14.801l-19.593,16.998
		c-2.924,2.539-4.582,6.005-4.582,9.558v21.396c0,7.442,7.019,13.531,15.596,13.531h21.542c5.945,0,11.308-2.876,13.939-7.442
		l9.163-15.814c1.364-2.284,4.093-3.721,7.018-3.721h3.022c4.289,0,7.797,3.044,7.797,6.766c0,3.721,3.511,6.766,7.799,6.766h15.597
		c4.288,0,7.799-3.045,7.799-6.766v-1.861c0-2.96,2.143-5.497,5.36-6.428l30.804-8.879c6.334-1.861,10.622-7.02,10.622-12.855
		v-3.806c0-7.442,7.02-13.531,15.599-13.531h35.772c6.044,0,11.016,4.313,11.016,9.556v7.949c0,5.244-4.972,9.558-11.016,9.558
		h-31.191c-2.925,0-5.752,1.014-7.799,2.792l-9.163,7.947c-2.047,1.777-3.218,4.229-3.218,6.768c0,5.243,4.974,9.557,11.016,9.557
		h15.597c2.926,0,5.75,1.015,7.798,2.791l1.358,1.179l59.771-34.706C381.967,354.698,310.004,308.088,225.578,308.088z"/>
	<path fill="none" stroke="#FFFFFF" stroke-width="20" d="M41.845,401.724c16.602-37.906,47.117-67.705,83.631-86.593
		c39.001-20.174,83.958-28.49,127.653-25.653c42.614,2.768,85.255,16.421,119.234,42.769c24.902,19.31,44.101,45.253,55.002,74.84"
		/>
	<path fill="#FFFFFF" d="M147.257,389.59l9.164-7.949c2.047-1.776,3.217-4.229,3.217-6.766v-13.531
		c0-5.244-4.972-9.556-11.016-9.556c-2.925,0-5.75,1.014-7.797,2.79l-24.76,21.48c-2.047,1.776-3.217,4.229-3.217,6.766
		c0,5.244,4.971,9.558,11.015,9.558h15.597C142.384,392.382,145.21,391.366,147.257,389.59z"/>
</g>
</svg>
